<svg xmlns="http://www.w3.org/2000/svg" xmlns:xlink="http://www.w3.org/1999/xlink" version="1.1" width="2362px" height="708px" style="shape-rendering:geometricPrecision; text-rendering:geometricPrecision; image-rendering:optimizeQuality; fill-rule:evenodd; clip-rule:evenodd">
<g><path style="opacity:0.993" fill="#fefffe" d="M 343.5,4.5 C 471.562,0.457348 574.062,49.124 651,150.5C 712.889,241.492 730.222,340.492 703,447.5C 670.053,556.109 601.553,632.943 497.5,678C 396.97,715.878 298.636,710.878 202.5,663C 104.447,608.493 44.2806,525.993 22,415.5C 4.56825,302.502 33.2349,203.169 108,117.5C 171.85,49.6611 250.35,11.9944 343.5,4.5 Z M 303.5,189.5 C 381.12,188.374 456.787,199.874 530.5,224C 558.678,233.608 585.344,246.275 610.5,262C 623.636,275.889 624.802,290.722 614,306.5C 603.825,317.401 591.659,320.567 577.5,316C 525.838,286.91 470.505,268.577 411.5,261C 344.057,251.755 276.724,252.422 209.5,263C 194.016,266.038 178.682,269.704 163.5,274C 138.172,275.005 125.672,262.838 126,237.5C 130.54,220.967 141.373,211.467 158.5,209C 206.216,196.831 254.549,190.331 303.5,189.5 Z M 275.5,310.5 C 367.941,305.354 455.607,323.188 538.5,364C 546.5,368.667 554.5,373.333 562.5,378C 576.248,393.011 575.582,407.344 560.5,421C 554.34,424.873 547.673,426.207 540.5,425C 479.556,389.911 413.889,369.911 343.5,365C 286.568,360.452 230.735,366.286 176,382.5C 154.945,378.715 146.611,366.382 151,345.5C 153.451,340.42 156.951,336.253 161.5,333C 179.63,326.134 198.297,321.134 217.5,318C 236.883,314.719 256.217,312.219 275.5,310.5 Z M 300.5,423.5 C 361.97,421.895 420.97,433.061 477.5,457C 492.31,463.903 506.643,471.57 520.5,480C 530.119,489.812 530.953,500.312 523,511.5C 515.664,517.902 507.497,519.402 498.5,516C 441.208,481.634 379.042,465.134 312,466.5C 270.957,466.776 230.457,471.61 190.5,481C 174.915,482.871 165.915,476.038 163.5,460.5C 164.231,451.523 168.564,445.023 176.5,441C 217.404,431.085 258.738,425.252 300.5,423.5 Z"/></g>
<g><path style="opacity:0.976" fill="#fefffe" d="M 1828.5,164.5 C 1848.01,163.531 1861.85,171.864 1870,189.5C 1876.69,214.963 1867.85,232.463 1843.5,242C 1819.3,245.99 1803.14,236.49 1795,213.5C 1791.83,187.124 1803,170.79 1828.5,164.5 Z"/></g>
<g><path style="opacity:0.984" fill="#fefffe" d="M 1980.5,179.5 C 2001.25,177.949 2021.59,180.116 2041.5,186C 2042.13,186.75 2042.63,187.584 2043,188.5C 2043.67,204.833 2043.67,221.167 2043,237.5C 2042.5,238 2042,238.5 2041.5,239C 2030.82,236.796 2019.99,235.296 2009,234.5C 1995.3,232.895 1986.3,238.561 1982,251.5C 1980.71,258.437 1980.21,265.437 1980.5,272.5C 2011.84,272.333 2043.17,272.5 2074.5,273C 2075,273.5 2075.5,274 2076,274.5C 2096.56,328.62 2117.39,382.62 2138.5,436.5C 2157.94,382.616 2177.11,328.616 2196,274.5C 2196.5,274 2197,273.5 2197.5,273C 2217.83,272.333 2238.17,272.333 2258.5,273C 2259.89,273.956 2260.56,275.289 2260.5,277C 2227.4,363.644 2193.9,450.144 2160,536.5C 2141.39,579.559 2108.89,596.392 2062.5,587C 2048.94,584.802 2036.44,579.968 2025,572.5C 2024.73,569.351 2025.39,566.351 2027,563.5C 2032.85,551.136 2038.68,538.803 2044.5,526.5C 2046.1,525.515 2047.76,525.349 2049.5,526C 2060.67,532.46 2072.67,535.127 2085.5,534C 2096.31,530.018 2103.65,522.518 2107.5,511.5C 2082,450.5 2056.5,389.5 2031,328.5C 2014.58,327.508 1998.08,327.175 1981.5,327.5C 1981.67,389.501 1981.5,451.501 1981,513.5C 1980.5,514.667 1979.67,515.5 1978.5,516C 1959.5,516.667 1940.5,516.667 1921.5,516C 1920.58,515.626 1919.75,515.126 1919,514.5C 1918.5,452.168 1918.33,389.834 1918.5,327.5C 1908.73,327.948 1899.06,327.448 1889.5,326C 1888.84,317.242 1888.51,308.409 1888.5,299.5C 1888.51,290.591 1888.84,281.758 1889.5,273C 1899.06,271.552 1908.73,271.052 1918.5,271.5C 1917,252.144 1919.84,233.477 1927,215.5C 1938.51,194.161 1956.35,182.161 1980.5,179.5 Z"/></g>
<g><path style="opacity:0.983" fill="#fefffe" d="M 935.5,190.5 C 980.92,188.809 1021.59,201.643 1057.5,229C 1059.41,230.413 1060.75,232.247 1061.5,234.5C 1051.42,250.082 1040.75,265.249 1029.5,280C 1027.83,280.667 1026.17,280.667 1024.5,280C 1001.03,260.607 974.034,250.107 943.5,248.5C 927.97,247.509 914.47,252.176 903,262.5C 890.271,285.087 895.771,301.587 919.5,312C 924.833,314 930.167,316 935.5,318C 958.057,323.556 980.39,329.889 1002.5,337C 1021,343.197 1037.16,353.03 1051,366.5C 1066.63,385.675 1072.97,407.675 1070,432.5C 1064.42,475.748 1040.59,503.248 998.5,515C 933.606,528.942 875.606,514.942 824.5,473C 822.042,471.213 820.376,468.879 819.5,466C 830.542,452.093 841.709,438.26 853,424.5C 854.313,423.427 855.813,422.76 857.5,422.5C 867.284,429.899 877.284,437.066 887.5,444C 918.976,463.36 952.309,467.694 987.5,457C 1005.39,446.668 1010.56,431.835 1003,412.5C 996.192,404.335 987.692,398.502 977.5,395C 955.966,388.533 934.299,382.533 912.5,377C 887.209,370.779 865.709,358.279 848,339.5C 833.71,317.522 829.044,293.522 834,267.5C 841.212,235.952 859.712,213.785 889.5,201C 904.401,194.99 919.734,191.49 935.5,190.5 Z"/></g>
<g><path style="opacity:0.982" fill="#fefffe" d="M 1653.5,207.5 C 1673.41,207.174 1693.24,207.507 1713,208.5C 1714.48,229.408 1714.98,250.408 1714.5,271.5C 1734.5,271.333 1754.5,271.5 1774.5,272C 1775.67,272.5 1776.5,273.333 1777,274.5C 1777.67,291.5 1777.67,308.5 1777,325.5C 1776.25,326.126 1775.42,326.626 1774.5,327C 1754.5,327.5 1734.5,327.667 1714.5,327.5C 1714.02,368.548 1714.52,409.548 1716,450.5C 1719.69,458.267 1725.86,462.433 1734.5,463C 1740.19,463.405 1745.86,463.072 1751.5,462C 1758.42,460.028 1765.25,457.861 1772,455.5C 1773.66,455.675 1774.99,456.342 1776,457.5C 1776.67,473.833 1776.67,490.167 1776,506.5C 1759.88,516.072 1742.38,520.739 1723.5,520.5C 1700.92,521.702 1681.75,514.368 1666,498.5C 1657.78,487.182 1653.12,474.516 1652,460.5C 1651.5,416.168 1651.33,371.835 1651.5,327.5C 1641.73,327.948 1632.06,327.448 1622.5,326C 1621.84,317.242 1621.51,308.409 1621.5,299.5C 1621.51,290.591 1621.84,281.758 1622.5,273C 1632.06,271.552 1641.73,271.052 1651.5,271.5C 1651.33,250.831 1651.5,230.164 1652,209.5C 1652.72,208.956 1653.22,208.289 1653.5,207.5 Z"/></g>
<g><path style="opacity:0.985" fill="#fefffe" d="M 1213.5,267.5 C 1274.05,264.248 1314.88,290.915 1336,347.5C 1347.96,389.17 1343.96,429.17 1324,467.5C 1292.25,513.644 1249.09,529.811 1194.5,516C 1178.58,510.414 1165.08,501.247 1154,488.5C 1153.99,521.252 1153.32,553.919 1152,586.5C 1132.24,587.659 1112.41,587.826 1092.5,587C 1092,586.5 1091.5,586 1091,585.5C 1090.33,481.5 1090.33,377.5 1091,273.5C 1091.75,272.874 1092.58,272.374 1093.5,272C 1112.17,271.333 1130.83,271.333 1149.5,272C 1151.33,272.5 1152.5,273.667 1153,275.5C 1153.33,284.167 1153.67,292.833 1154,301.5C 1169.6,282.782 1189.44,271.448 1213.5,267.5 Z M 1210.5,322.5 C 1246.57,323.407 1268.74,341.407 1277,376.5C 1282.98,406.429 1275.15,431.929 1253.5,453C 1227.92,469.929 1202.59,469.596 1177.5,452C 1151.86,426.479 1145.36,396.646 1158,362.5C 1168.49,339.827 1185.99,326.493 1210.5,322.5 Z"/></g>
<g><path style="opacity:0.984" fill="#fefffe" d="M 1471.5,267.5 C 1515.82,263.103 1553.65,276.436 1585,307.5C 1620.02,349.649 1627.36,396.316 1607,447.5C 1586.81,488.004 1554.31,512.171 1509.5,520C 1462.75,526.418 1422.92,512.918 1390,479.5C 1361.84,445.528 1352.51,406.862 1362,363.5C 1378.72,308.95 1415.22,276.95 1471.5,267.5 Z M 1477.5,323.5 C 1514.43,321.033 1539.27,337.033 1552,371.5C 1560.04,400.847 1553.87,426.681 1533.5,449C 1514.66,464.636 1493.33,469.302 1469.5,463C 1442.48,453.158 1426.65,433.991 1422,405.5C 1419.15,383.75 1424.15,364.084 1437,346.5C 1447.98,334.263 1461.48,326.596 1477.5,323.5 Z"/></g>
<g><path style="opacity:0.979" fill="#fefffe" d="M 1804.5,271.5 C 1823.5,271.333 1842.5,271.5 1861.5,272C 1862.67,272.5 1863.5,273.333 1864,274.5C 1864.67,354.167 1864.67,433.833 1864,513.5C 1863.5,514.667 1862.67,515.5 1861.5,516C 1842.5,516.667 1823.5,516.667 1804.5,516C 1803.58,515.626 1802.75,515.126 1802,514.5C 1801.33,434.5 1801.33,354.5 1802,274.5C 1802.7,273.309 1803.53,272.309 1804.5,271.5 Z"/></g>
<g><path style="opacity:0.813" fill="#fefffe" d="M 2299.5,271.5 C 2323.16,270.068 2338,280.734 2344,303.5C 2345.86,326.616 2335.7,341.449 2313.5,348C 2281.7,349.53 2266.53,334.364 2268,302.5C 2272.46,285.871 2282.96,275.538 2299.5,271.5 Z M 2299.5,276.5 C 2320.5,274.907 2333.67,284.24 2339,304.5C 2340.36,324.458 2331.52,337.291 2312.5,343C 2292.01,345.009 2278.84,336.175 2273,316.5C 2271.34,296.023 2280.18,282.69 2299.5,276.5 Z M 2298.5,296.5 C 2302.85,296.334 2307.18,296.501 2311.5,297C 2316.23,299.922 2316.57,303.255 2312.5,307C 2307.85,307.499 2303.18,307.666 2298.5,307.5C 2298.5,303.833 2298.5,300.167 2298.5,296.5 Z"/></g>
<g><path style="opacity:0.908" fill="#fefffe" d="M 2290.5,288.5 C 2298.17,288.334 2305.84,288.5 2313.5,289C 2323.1,291.796 2326.27,297.963 2323,307.5C 2321.18,310.316 2319.02,312.816 2316.5,315C 2319.62,319.397 2322.62,323.897 2325.5,328.5C 2322.22,329.657 2318.88,329.824 2315.5,329C 2312.62,324.745 2309.62,320.578 2306.5,316.5C 2303.91,315.52 2301.25,315.187 2298.5,315.5C 2298.5,320.167 2298.5,324.833 2298.5,329.5C 2295.83,329.5 2293.17,329.5 2290.5,329.5C 2290.5,315.833 2290.5,302.167 2290.5,288.5 Z M 2298.5,296.5 C 2298.5,300.167 2298.5,303.833 2298.5,307.5C 2303.18,307.666 2307.85,307.499 2312.5,307C 2316.57,303.255 2316.23,299.922 2311.5,297C 2307.18,296.501 2302.85,296.334 2298.5,296.5 Z"/></g>
</svg>